<svg height="512pt" viewBox="-4 0 512 512.001" width="512pt" xmlns="http://www.w3.org/2000/svg"><path d="m123.53125 512c-4.246094 0-7.6875-3.441406-7.6875-7.6875v-32.800781c0-4.246094 3.441406-7.6875 7.6875-7.6875s7.6875 3.441406 7.6875 7.6875v32.800781c0 4.246094-3.441406 7.6875-7.6875 7.6875zm0 0" fill="#495959"/><path d="m123.53125 463.824219c-.996094 0-1.945312.195312-2.816406.539062 2.847656 1.125 4.867187 3.898438 4.867187 7.148438v32.800781c0 3.25-2.019531 6.023438-4.867187 7.148438.871094.34375 1.820312.539062 2.816406.539062 4.246094 0 7.6875-3.441406 7.6875-7.6875v-32.800781c0-4.246094-3.441406-7.6875-7.6875-7.6875zm0 0" fill="#3f4a4a"/><path d="m494.0625 348.507812h-483.8125c-5.660156 0-10.25-4.585937-10.25-10.25v-328.007812c0-5.660156 4.589844-10.25 10.25-10.25h483.8125c5.660156 0 10.25 4.589844 10.25 10.25v328.007812c0 5.660157-4.589844 10.25-10.25 10.25zm0 0" fill="#c8d2dc"/><path d="m486.886719 0v320.832031c0 5.660157-4.589844 10.25-10.25 10.25h-476.636719v7.175781c0 5.660157 4.589844 10.25 10.25 10.25h483.8125c5.660156 0 10.25-4.589843 10.25-10.25v-328.007812c0-5.660156-4.589844-10.25-10.25-10.25zm0 0" fill="#b9c3cd"/><path d="m34.851562 303.40625v-258.304688c0-5.660156 4.589844-10.25 10.25-10.25h414.109376c5.660156 0 10.25 4.589844 10.25 10.25v258.304688c0 5.660156-4.589844 10.25-10.25 10.25h-414.109376c-5.660156 0-10.25-4.589844-10.25-10.25zm0 0" fill="#81b8fd"/><path d="m447.9375 34.851562v247.03125c0 5.660157-4.589844 10.25-10.25 10.25h-402.835938v11.273438c0 5.660156 4.589844 10.25 10.25 10.25h414.109376c5.660156 0 10.25-4.589844 10.25-10.25v-258.304688c0-5.660156-4.589844-10.25-10.25-10.25zm0 0" fill="#62a6fd"/><path d="m183.480469 217.800781c0 33.109375-26.839844 59.945313-59.949219 59.945313-33.105469 0-59.945312-26.835938-59.945312-59.945313s26.839843-59.945312 59.945312-59.945312c33.109375 0 59.949219 26.835937 59.949219 59.945312zm0 0" fill="#495959"/><path d="m123.53125 157.855469c-3.230469 0-6.398438.261719-9.488281.753906 28.597656 4.546875 50.457031 29.3125 50.457031 59.191406 0 29.878907-21.859375 54.644531-50.457031 59.191407 3.089843.492187 6.257812.753906 9.488281.753906 33.109375 0 59.949219-26.835938 59.949219-59.945313s-26.839844-59.945312-59.949219-59.945312zm0 0" fill="#3f4a4a"/><path d="m156.332031 309.558594-12.585937 152.546875c-.4375 5.316406-4.878906 9.40625-10.214844 9.40625h-19.996094c-5.335937 0-9.777344-4.089844-10.214844-9.40625l-12.589843-152.546875zm0 0" fill="#495959"/><path d="m137.351562 309.558594-13.359374 161.953125h9.539062c5.332031 0 9.777344-4.089844 10.214844-9.40625l12.585937-152.546875zm0 0" fill="#3f4a4a"/><path d="m152.429688 309.558594h-57.796876c-5.660156 0-10.25-4.589844-10.25-10.25v-22.320313c0-5.660156 4.589844-10.25 10.25-10.25h57.796876c5.664062 0 10.25 4.589844 10.25 10.25v22.320313c0 5.660156-4.585938 10.25-10.25 10.25zm0 0" fill="#c8d2dc"/><path d="m152.429688 266.738281h-18.976563c5.660156 0 10.25 4.589844 10.25 10.25v22.320313c0 5.660156-4.589844 10.25-10.25 10.25h18.976563c5.664062 0 10.25-4.589844 10.25-10.25v-22.320313c0-5.660156-4.585938-10.25-10.25-10.25zm0 0" fill="#b9c3cd"/><path d="m252.15625 245.492188h-41c-4.246094 0-7.6875-3.441407-7.6875-7.6875 0-4.246094 3.441406-7.6875 7.6875-7.6875h41c4.246094 0 7.6875 3.441406 7.6875 7.6875 0 4.246093-3.441406 7.6875-7.6875 7.6875zm0 0" fill="#da2f3c"/><path d="m321.859375 282.394531h-131.203125c-4.246094 0-7.6875-3.441406-7.6875-7.6875 0-4.246093 3.441406-7.6875 7.6875-7.6875h131.203125c4.246094 0 7.6875 3.441407 7.6875 7.6875 0 4.246094-3.445313 7.6875-7.6875 7.6875zm0 0" fill="#ddf5ff"/><path d="m322.882812 245.492188h-30.75c-4.246093 0-7.6875-3.441407-7.6875-7.6875 0-4.246094 3.441407-7.6875 7.6875-7.6875h30.75c4.246094 0 7.6875 3.441406 7.6875 7.6875 0 4.246093-3.441406 7.6875-7.6875 7.6875zm0 0" fill="#da2f3c"/><path d="m414.109375 245.492188h-51.25c-4.246094 0-7.6875-3.441407-7.6875-7.6875 0-4.246094 3.441406-7.6875 7.6875-7.6875h51.25c4.246094 0 7.6875 3.441406 7.6875 7.6875 0 4.246093-3.441406 7.6875-7.6875 7.6875zm0 0" fill="#ddf5ff"/><path d="m414.109375 282.394531h-62.527344c-4.246093 0-7.6875-3.441406-7.6875-7.6875 0-4.246093 3.441407-7.6875 7.6875-7.6875h62.527344c4.246094 0 7.6875 3.441407 7.6875 7.6875 0 4.246094-3.441406 7.6875-7.6875 7.6875zm0 0" fill="#ddf5ff"/><path d="m371.691406 57.492188c-1.867187-1.457032-4.300781-1.972657-6.597656-1.398438l-77.902344 19.472656c-3.421875.859375-5.820312 3.933594-5.820312 7.460938v63.570312c-3.847656-1.972656-8.203125-3.09375-12.816406-3.09375-15.542969 0-28.1875 12.644532-28.1875 28.1875 0 15.542969 12.644531 28.1875 28.1875 28.1875 15.542968 0 28.191406-12.644531 28.191406-28.1875v-82.664062l62.527344-15.628906v53.722656c-3.847657-1.972656-8.203126-3.09375-12.816407-3.09375-15.542969 0-28.1875 12.648437-28.1875 28.1875 0 15.542968 12.644531 28.1875 28.1875 28.1875s28.191407-12.644532 28.191407-28.1875v-88.664063c0-2.367187-1.09375-4.601562-2.957032-6.058593zm0 0" fill="#ffe046"/><path d="m154.285156 442.296875h-61.503906c-4.246094 0-7.6875-3.441406-7.6875-7.6875s3.441406-7.6875 7.6875-7.6875h61.503906c4.246094 0 7.6875 3.441406 7.6875 7.6875s-3.445312 7.6875-7.6875 7.6875zm0 0" fill="#c8d2dc"/><path d="m154.285156 426.921875h-5.640625c4.246094 0 7.6875 3.441406 7.6875 7.6875 0 4.25-3.441406 7.691406-7.6875 7.691406h5.640625c4.246094 0 7.6875-3.441406 7.6875-7.691406 0-4.246094-3.445312-7.6875-7.6875-7.6875zm0 0" fill="#b9c3cd"/><path d="m123.53125 380.796875c-4.246094 0-7.6875-3.441406-7.6875-7.6875v-30.75c0-4.246094 3.441406-7.6875 7.6875-7.6875s7.6875 3.4375 7.6875 7.6875v30.75c0 4.246094-3.441406 7.6875-7.6875 7.6875zm0 0" fill="#c8d2dc"/></svg>